<?xml version="1.0" encoding="utf-8"?>
<!-- Generator: Adobe Illustrator 16.0.0, SVG Export Plug-In . SVG Version: 6.00 Build 0)  -->
<!DOCTYPE svg PUBLIC "-//W3C//DTD SVG 1.1//EN" "http://www.w3.org/Graphics/SVG/1.1/DTD/svg11.dtd">
<svg version="1.1" id="Layer_1" xmlns="http://www.w3.org/2000/svg" xmlns:xlink="http://www.w3.org/1999/xlink" x="0px" y="0px"
	 width="360px" height="360px" viewBox="0 0 360 360" enable-background="new 0 0 360 360" xml:space="preserve">
<g>
	<path fill="#C36664" d="M284.912,179.508c0-13.897-17.402-27.067-44.086-35.235c6.158-27.195,3.422-48.832-8.637-55.759
		c-2.779-1.625-6.029-2.395-9.578-2.395v9.536c1.967,0,3.549,0.385,4.874,1.112c5.815,3.335,8.339,16.035,6.372,32.37
		c-0.471,4.02-1.24,8.252-2.182,12.571c-8.381-2.052-17.531-3.635-27.152-4.661c-5.773-7.911-11.76-15.095-17.789-21.38
		c13.94-12.957,27.025-20.055,35.919-20.055v-9.536c-11.759,0-27.153,8.381-42.717,22.919
		c-15.565-14.453-30.958-22.748-42.718-22.748v9.535c8.852,0,21.979,7.056,35.919,19.927c-5.987,6.286-11.973,13.427-17.66,21.337
		c-9.664,1.026-18.815,2.608-27.196,4.704c-0.983-4.276-1.71-8.424-2.224-12.401c-2.01-16.334,0.471-29.034,6.243-32.412
		c1.283-0.77,2.951-1.112,4.917-1.112v-9.536c-3.592,0-6.842,0.77-9.664,2.395c-12.016,6.927-14.709,28.521-8.509,55.631
		c-26.597,8.21-43.915,21.337-43.915,35.192c0,13.897,17.404,27.068,44.086,35.234c-6.158,27.196-3.421,48.833,8.637,55.76
		c2.78,1.625,6.029,2.395,9.621,2.395c11.759,0,27.153-8.381,42.718-22.919c15.565,14.453,30.958,22.749,42.718,22.749
		c3.592,0,6.842-0.771,9.664-2.395c12.016-6.928,14.709-28.521,8.51-55.632C267.595,206.533,284.912,193.363,284.912,179.508
		L284.912,179.508z M229.238,150.987c-1.582,5.516-3.549,11.203-5.772,16.89c-1.753-3.421-3.592-6.842-5.602-10.263
		c-1.967-3.42-4.062-6.756-6.157-10.006C217.779,148.507,223.637,149.619,229.238,150.987L229.238,150.987z M209.654,196.527
		c-3.336,5.772-6.756,11.246-10.305,16.334c-6.372,0.557-12.828,0.855-19.328,0.855c-6.457,0-12.914-0.299-19.242-0.812
		c-3.549-5.089-7.013-10.52-10.348-16.249c-3.25-5.602-6.2-11.289-8.894-17.019c2.651-5.73,5.644-11.46,8.851-17.062
		c3.335-5.772,6.756-11.246,10.306-16.334c6.371-0.556,12.828-0.855,19.328-0.855c6.457,0,12.914,0.299,19.242,0.812
		c3.549,5.089,7.013,10.519,10.348,16.249c3.25,5.602,6.201,11.289,8.895,17.019C215.812,185.195,212.861,190.926,209.654,196.527
		L209.654,196.527z M223.466,190.969c2.31,5.729,4.276,11.459,5.901,17.018c-5.602,1.369-11.503,2.523-17.617,3.422
		c2.095-3.293,4.189-6.672,6.157-10.135C219.874,197.853,221.713,194.389,223.466,190.969z M180.107,236.594
		c-3.977-4.105-7.954-8.681-11.887-13.684c3.848,0.171,7.782,0.299,11.759,0.299c4.02,0,7.996-0.085,11.888-0.299
		C188.018,227.913,184.041,232.488,180.107,236.594z M148.293,211.408c-6.072-0.898-11.93-2.01-17.532-3.379
		c1.583-5.516,3.549-11.203,5.773-16.891c1.753,3.422,3.592,6.842,5.602,10.263S146.198,208.158,148.293,211.408z M179.893,122.423
		c3.976,4.105,7.954,8.68,11.887,13.683c-3.849-0.171-7.782-0.299-11.759-0.299c-4.02,0-7.996,0.085-11.888,0.299
		C171.982,131.104,175.959,126.528,179.893,122.423z M148.25,147.609c-2.095,3.292-4.19,6.671-6.158,10.134
		c-1.967,3.421-3.806,6.842-5.559,10.263c-2.309-5.73-4.276-11.46-5.901-17.019C136.235,149.662,142.136,148.507,148.25,147.609z
		 M109.552,201.145c-15.137-6.456-24.929-14.923-24.929-21.636s9.792-15.223,24.929-21.637c3.677-1.582,7.697-2.993,11.845-4.319
		c2.437,8.381,5.644,17.104,9.621,26.041c-3.934,8.895-7.098,17.574-9.493,25.913C117.292,204.182,113.272,202.727,109.552,201.145
		L109.552,201.145z M132.557,262.25c-5.815-3.336-8.338-16.035-6.371-32.37c0.47-4.02,1.24-8.253,2.181-12.571
		c8.381,2.053,17.532,3.635,27.153,4.66c5.773,7.911,11.759,15.096,17.789,21.381c-13.94,12.957-27.025,20.055-35.919,20.055
		C135.465,263.361,133.84,262.977,132.557,262.25L132.557,262.25z M233.984,229.666c2.01,16.335-0.47,29.035-6.242,32.412
		c-1.283,0.77-2.951,1.112-4.918,1.112c-8.852,0-21.979-7.056-35.918-19.927c5.986-6.285,11.973-13.426,17.66-21.337
		c9.663-1.026,18.814-2.608,27.195-4.704C232.745,221.542,233.515,225.689,233.984,229.666z M250.447,201.145
		c-3.677,1.582-7.696,2.994-11.844,4.319c-2.438-8.381-5.645-17.104-9.621-26.041c3.934-8.894,7.098-17.575,9.492-25.913
		c4.233,1.326,8.253,2.78,12.016,4.362c15.138,6.457,24.93,14.923,24.93,21.637C275.377,186.222,265.585,194.73,250.447,201.145
		L250.447,201.145z"/>
	<circle fill="#C36664" cx="179.979" cy="179.508" r="19.542"/>
	<path fill="#C36664" d="M222.568,86.12"/>
</g>
</svg>
